<svg id="Capa_1" class="documents__svg-icon documents__svg-icon--yellow" enable-background="new 0 0 512 512" height="512" viewBox="0 0 512 512" width="512" xmlns="http://www.w3.org/2000/svg"><g><path d="m497 0h-482c-8.284 0-15 6.716-15 15v302c0 8.284 6.716 15 15 15h46v45c0 8.284 6.716 15 15 15h135v105c0 8.284 6.716 15 15 15h60c8.284 0 15-6.716 15-15v-105h135c8.284 0 15-6.716 15-15v-45h46c8.284 0 15-6.716 15-15v-302c0-8.284-6.716-15-15-15zm-406 362v-30h120v30zm180 120h-30v-150h30zm150-120h-120v-30h120zm61-60h-452v-272h61v30h-15c-8.284 0-15 6.716-15 15s6.716 15 15 15h60c8.284 0 15-6.716 15-15s-6.716-15-15-15h-15v-30h120v30h-15c-8.284 0-15 6.716-15 15s6.716 15 15 15h60c8.284 0 15-6.716 15-15s-6.716-15-15-15h-15v-30h120v30h-15c-8.284 0-15 6.716-15 15s6.716 15 15 15h60c8.284 0 15-6.716 15-15s-6.716-15-15-15h-15v-30h61z"/></g></svg>